<svg version="1.1" xmlns="http://www.w3.org/2000/svg" xmlns:xlink="http://www.w3.org/1999/xlink" width="31" height="28"><defs/><g><path fill="rgb(255,255,255)" stroke="none" paint-order="stroke fill markers" fill-rule="evenodd" d=" M 25.32172465324402 20.13632369041443 C 25.32172465324402 20.13632369041443 24.56967794895172 20.13632369041443 24.56967794895172 20.13632369041443 C 24.56967794895172 20.13632369041443 24.56967794895172 26.99933683872223 24.56967794895172 26.99933683872223 C 24.56967794895172 26.99933683872223 19.152822732925415 20.13632369041443 19.152822732925415 20.13632369041443 C 19.152822732925415 20.13632369041443 5.76077663898468 20.13632369041443 5.76077663898468 20.13632369041443 C 3.683361053466797 20.13632369041443 1.999604344367981 18.429181575775146 1.999604344367981 16.323552131652832 C 1.999604344367981 16.323552131652832 1.999604344367981 4.885480880737305 1.999604344367981 4.885480880737305 C 1.999604344367981 2.779486298561096 3.683361053466797 1.072344183921814 5.76077663898468 1.072344183921814 C 5.76077663898468 1.072344183921814 25.32172465324402 1.072344183921814 25.32172465324402 1.072344183921814 C 27.39998960494995 1.072344183921814 29.084238052368164 2.779486298561096 29.084238052368164 4.885480880737305 C 29.084238052368164 4.885480880737305 29.084238052368164 16.323552131652832 29.084238052368164 16.323552131652832 C 29.084238052368164 18.429181575775146 27.39998960494995 20.13632369041443 25.32172465324402 20.13632369041443 Z"/></g></svg>