<svg version="1.1" xmlns="http://www.w3.org/2000/svg" xmlns:xlink="http://www.w3.org/1999/xlink" width="38" height="29"><defs/><g><path fill="rgb(255,255,255)" stroke="none" paint-order="stroke fill markers" fill-rule="evenodd" d=" M 34.31613862514496 1.9997246265411377 C 34.31613862514496 1.9997246265411377 33.01848590373993 1.9997246265411377 33.01848590373993 1.9997246265411377 C 32.07403540611267 1.9997246265411377 31.329007148742676 2.7328001260757446 31.329007148742676 3.662441611289978 C 31.329007148742676 3.662441611289978 31.329007148742676 6.565045714378357 31.329007148742676 6.565045714378357 C 31.329007148742676 6.565045714378357 6.675393581390381 6.565045714378357 6.675393581390381 6.565045714378357 C 6.675393581390381 6.565045714378357 6.675393581390381 3.662441611289978 6.675393581390381 3.662441611289978 C 6.675393581390381 2.7328001260757446 5.930812358856201 1.9997246265411377 4.986317157745361 1.9997246265411377 C 4.986317157745361 1.9997246265411377 3.6882174015045166 1.9997246265411377 3.6882174015045166 1.9997246265411377 C 2.7442139387130737 1.9997246265411377 1.999632716178894 2.7328001260757446 1.999632716178894 3.662441611289978 C 1.999632716178894 3.662441611289978 1.999632716178894 26.336419343948364 1.999632716178894 26.336419343948364 C 1.999632716178894 27.266060829162598 2.7442139387130737 27.9995014667511 3.6882174015045166 27.9995014667511 C 3.6882174015045166 27.9995014667511 4.986317157745361 27.9995014667511 4.986317157745361 27.9995014667511 C 5.930812358856201 27.9995014667511 6.675393581390381 27.266060829162598 6.675393581390381 26.336419343948364 C 6.675393581390381 26.336419343948364 6.675393581390381 23.434545516967773 6.675393581390381 23.434545516967773 C 6.675393581390381 23.434545516967773 31.32243573665619 23.434545516967773 31.32243573665619 23.434545516967773 C 31.32243573665619 23.434545516967773 31.32243573665619 26.336419343948364 31.32243573665619 26.336419343948364 C 31.32243573665619 27.266060829162598 32.06786632537842 27.9995014667511 33.01236152648926 27.9995014667511 C 33.01236152648926 27.9995014667511 34.309120178222656 27.9995014667511 34.309120178222656 27.9995014667511 C 35.253570675849915 27.9995014667511 35.999045968055725 27.266060829162598 35.999045968055725 26.336419343948364 C 35.999045968055725 26.336419343948364 35.999045968055725 3.662441611289978 35.999045968055725 3.662441611289978 C 36.00521504878998 2.7328001260757446 35.26018679141998 1.9997246265411377 34.31613862514496 1.9997246265411377 Z M 12.733162641525269 17.39589238166809 C 12.341291904449463 17.70565116405487 11.865557432174683 17.857792019844055 11.23649001121521 17.857792019844055 C 10.330260992050171 17.857792019844055 9.507895708084106 17.54766809940338 8.801982998847961 16.88993275165558 C 8.801982998847961 16.88993275165558 9.546564221382141 15.96065640449524 9.546564221382141 15.96065640449524 C 10.176033973693848 16.46661603450775 10.729105472564697 16.77637481689453 11.23649001121521 16.77637481689453 C 11.473686695098877 16.77637481689453 11.666537523269653 16.70030438899994 11.789114475250244 16.62447738647461 C 11.904225945472717 16.54877209663391 11.987687349319458 16.390789031982422 11.987687349319458 16.238648176193237 C 11.987687349319458 16.0428124666214 11.910797357559204 15.928889393806458 11.789114475250244 15.814966320991516 C 11.634485125541687 15.739261031150818 11.35817289352417 15.619130611419678 10.960177779197693 15.50557267665863 C 10.292039513587952 15.353431820869446 9.823323488235474 15.157596111297607 9.507895708084106 14.923542618751526 C 9.193809032440186 14.651636481285095 9.039626717567444 14.266172409057617 9.039626717567444 13.760212779045105 C 9.039626717567444 13.21603536605835 9.238601922988892 12.830571293830872 9.630472660064697 12.521177649497986 C 10.022298693656921 12.211418867111206 10.497630834579468 12.097495794296265 11.081860661506653 12.097495794296265 C 11.473686695098877 12.097495794296265 11.827335953712463 12.13498330116272 12.219161987304688 12.248906373977661 C 12.610585689544678 12.362829446792603 12.92556643486023 12.596882939338684 13.201878666877747 12.830571293830872 C 13.201878666877747 12.830571293830872 12.533695697784424 13.721994996070862 12.533695697784424 13.721994996070862 C 12.064979672431946 13.336530923843384 11.551023721694946 13.178547859191895 10.998399257659912 13.178547859191895 C 10.798977017402649 13.178547859191895 10.606573224067688 13.21603536605835 10.484890341758728 13.292470932006836 C 10.36933183670044 13.40578544139862 10.285423398017883 13.526159286499023 10.285423398017883 13.677935004234314 C 10.285423398017883 13.829832434654236 10.362760424613953 13.949841141700745 10.523111820220947 14.063885927200317 C 10.677294135093689 14.139591217041016 11.037514805793762 14.297817707061768 11.582629084587097 14.411497354507446 C 12.135700583457947 14.563273072242737 12.527571320533752 14.75947391986847 12.842105031013489 14.99352741241455 C 13.156594038009644 15.265068411827087 13.3112233877182 15.65089762210846 13.3112233877182 16.15685725212097 C 13.323561549186707 16.66233003139496 13.085873126983643 17.086498737335205 12.733162641525269 17.39589238166809 Z M 18.4306663274765 17.82565987110138 C 18.4306663274765 17.82565987110138 17.916710376739502 16.62447738647461 17.916710376739502 16.62447738647461 C 17.916710376739502 16.62447738647461 15.559495687484741 16.62447738647461 15.559495687484741 16.62447738647461 C 15.559495687484741 16.62447738647461 15.007318258285522 17.82565987110138 15.007318258285522 17.82565987110138 C 15.007318258285522 17.82565987110138 13.670594692230225 17.82565987110138 13.670594692230225 17.82565987110138 C 13.670594692230225 17.82565987110138 16.150341629981995 12.217504501342773 16.150341629981995 12.217504501342773 C 16.150341629981995 12.217504501342773 17.37025499343872 12.217504501342773 17.37025499343872 12.217504501342773 C 17.37025499343872 12.217504501342773 19.80476200580597 17.82565987110138 19.80476200580597 17.82565987110138 C 19.80476200580597 17.82565987110138 18.4306663274765 17.82565987110138 18.4306663274765 17.82565987110138 Z M 24.134830832481384 17.82565987110138 C 24.134830832481384 17.82565987110138 20.44129490852356 17.82565987110138 20.44129490852356 17.82565987110138 C 20.44129490852356 17.82565987110138 20.44129490852356 12.217504501342773 20.44129490852356 12.217504501342773 C 20.44129490852356 12.217504501342773 21.73894762992859 12.217504501342773 21.73894762992859 12.217504501342773 C 21.73894762992859 12.217504501342773 21.73894762992859 16.707120299339294 21.73894762992859 16.707120299339294 C 21.73894762992859 16.707120299339294 24.173052310943604 16.707120299339294 24.173052310943604 16.707120299339294 C 24.173052310943604 16.707120299339294 24.173052310943604 17.82565987110138 24.173052310943604 17.82565987110138 C 24.173052310943604 17.82565987110138 24.134830832481384 17.82565987110138 24.134830832481384 17.82565987110138 Z M 29.241533279418945 17.82565987110138 C 29.241533279418945 17.82565987110138 25.07226288318634 17.82565987110138 25.07226288318634 17.82565987110138 C 25.07226288318634 17.82565987110138 25.07226288318634 12.217504501342773 25.07226288318634 12.217504501342773 C 25.07226288318634 12.217504501342773 29.20286476612091 12.217504501342773 29.20286476612091 12.217504501342773 C 29.20286476612091 12.217504501342773 29.20286476612091 13.336530923843384 29.20286476612091 13.336530923843384 C 29.20286476612091 13.336530923843384 26.370362639427185 13.336530923843384 26.370362639427185 13.336530923843384 C 26.370362639427185 13.336530923843384 26.370362639427185 14.493653416633606 26.370362639427185 14.493653416633606 C 26.370362639427185 14.493653416633606 28.926552534103394 14.493653416633606 28.926552534103394 14.493653416633606 C 28.926552534103394 14.493653416633606 28.926552534103394 15.575192332267761 28.926552534103394 15.575192332267761 C 28.926552534103394 15.575192332267761 26.370362639427185 15.575192332267761 26.370362639427185 15.575192332267761 C 26.370362639427185 15.575192332267761 26.370362639427185 16.738522171974182 26.370362639427185 16.738522171974182 C 26.370362639427185 16.738522171974182 29.2801570892334 16.738522171974182 29.2801570892334 16.738522171974182 C 29.2801570892334 16.738522171974182 29.2801570892334 17.819574236869812 29.2801570892334 17.819574236869812 C 29.2801570892334 17.819574236869812 29.241533279418945 17.819574236869812 29.241533279418945 17.819574236869812 C 29.241533279418945 17.819574236869812 29.241533279418945 17.82565987110138 29.241533279418945 17.82565987110138 Z M 16.741187572479248 13.880343198776245 C 16.741187572479248 13.880343198776245 17.447994351387024 15.50557267665863 17.447994351387024 15.50557267665863 C 17.447994351387024 15.50557267665863 16.034380793571472 15.50557267665863 16.034380793571472 15.50557267665863 C 16.034380793571472 15.50557267665863 16.741187572479248 13.880343198776245 16.741187572479248 13.880343198776245 Z"/></g></svg>