<svg version="1.1" xmlns="http://www.w3.org/2000/svg" xmlns:xlink="http://www.w3.org/1999/xlink" width="29" height="29"><defs/><g><path fill="rgb(255,255,255)" stroke="none" paint-order="stroke fill markers" fill-rule="evenodd" d=" M 14.499418258666992 1.0003246068954468 C 7.043860673904419 1.0003246068954468 1.0005755424499512 7.044576525688171 1.0005755424499512 14.499721884727478 C 1.0005755424499512 21.954988956451416 7.043860673904419 27.998754024505615 14.499418258666992 27.998754024505615 C 21.95542287826538 27.998754024505615 27.999110341072083 21.954988956451416 27.999110341072083 14.499721884727478 C 27.999110341072083 7.044576525688171 21.95542287826538 1.0003246068954468 14.499418258666992 1.0003246068954468 Z M 4.107646465301514 14.499721884727478 C 4.107646465301514 8.760725378990173 8.760116815567017 4.107771158218384 14.499418258666992 4.107771158218384 C 14.755077481269836 4.107771158218384 15.004567623138428 4.1279754638671875 15.255398869514465 4.146354079246521 C 15.570379614830017 5.349362254142761 16.99762773513794 11.132783889770508 16.909338355064392 16.86532962322235 C 12.829251408576965 17.2281551361084 7.885493159294128 17.00347352027893 4.150248885154724 15.34611189365387 C 4.127852439880371 15.066659569740295 4.107646465301514 14.785016417503357 4.107646465301514 14.499721884727478 Z M 15.49657416343689 24.84164869785309 C 15.168003559112549 24.872685432434082 14.836348414421082 24.891794323921204 14.499418258666992 24.891794323921204 C 9.561382055282593 24.891794323921204 5.43650221824646 21.443673968315125 4.378236651420593 16.826746702194214 C 7.104031562805176 17.901713132858276 10.24449598789215 18.276344776153564 13.265020966529846 18.276344776153564 C 14.498077154159546 18.276344776153564 15.709183931350708 18.3354971408844 16.86320436000824 18.237761855125427 C 16.737989902496338 20.58973777294159 16.329042434692383 22.796632170677185 15.49657416343689 24.84164869785309 Z M 16.887344241142273 24.60503923892975 C 17.621867179870605 22.53519332408905 17.997868180274963 20.264034628868103 18.111236214637756 17.991902232170105 C 20.985044360160828 17.672406435012817 23.353658437728882 17.161091446876526 24.61219561100006 16.8581485748291 C 23.721344590187073 20.690272450447083 20.715303540229797 23.703513383865356 16.887344241142273 24.60503923892975 Z M 18.1472225189209 16.73801815509796 C 18.22147500514984 11.085924506187439 16.965575337409973 5.770488142967224 16.588635563850403 4.317603826522827 C 21.326802492141724 5.286558508872986 24.891592383384705 9.476517677307129 24.891592383384705 14.499721884727478 C 24.891592383384705 14.85208010673523 24.872727513313293 15.198230981826782 24.83933401107788 15.541947603225708 C 23.883886456489563 15.780991315841675 21.326802492141724 16.37567949295044 18.1472225189209 16.73801815509796 Z"/></g></svg>